<?xml version="1.0" standalone="no"?>
<!DOCTYPE svg PUBLIC "-//W3C//DTD SVG 20010904//EN"
 "http://www.w3.org/TR/2001/REC-SVG-20010904/DTD/svg10.dtd">
<svg version="1.0" xmlns="http://www.w3.org/2000/svg"
 width="1384.000000pt" height="774.000000pt" viewBox="0 0 1384.000000 774.000000"
 preserveAspectRatio="xMidYMid meet">

<g transform="translate(0.000000,774.000000) scale(0.100000,-0.100000)"
fill="#000000" stroke="none">
<path d="M0 3870 l0 -3870 6920 0 6920 0 0 3870 0 3870 -6920 0 -6920 0 0
-3870z m1747 1630 c10 0 13 -6 9 -16 -5 -14 -4 -15 9 -4 12 10 16 9 21 -3 4
-11 15 -14 40 -10 22 4 34 2 34 -6 0 -24 23 -36 60 -33 21 2 48 -2 61 -9 32
-17 95 -30 144 -30 29 1 48 -6 68 -24 l27 -24 0 -351 0 -350 29 0 c20 0 32 -6
35 -18 4 -11 17 -29 30 -41 l23 -21 28 26 c26 24 29 25 38 7 5 -10 20 -29 33
-43 13 -14 32 -46 44 -72 11 -26 34 -57 51 -69 24 -17 30 -27 27 -53 -3 -27
-6 -31 -30 -29 -16 1 -28 -2 -28 -8 0 -13 -23 -7 -37 11 -7 8 -13 25 -13 38 0
12 -4 22 -10 22 -5 0 -10 8 -11 18 0 10 -3 12 -6 4 -6 -15 -34 19 -52 65 -13
32 -116 135 -125 125 -3 -2 -22 3 -42 13 -29 14 -44 15 -70 7 -26 -8 -31 -7
-27 4 5 14 -11 19 -49 16 -10 -1 -18 3 -18 9 0 5 5 7 11 4 6 -4 5 2 -2 13 -7
12 -15 19 -19 18 -3 -2 -13 -6 -23 -9 -15 -6 -16 -9 -5 -21 7 -8 16 -12 21 -9
4 2 7 0 7 -6 0 -15 -22 -26 -47 -23 -13 2 -38 -8 -56 -22 -56 -43 -62 -35 -42
50 4 18 17 37 29 42 17 9 18 11 4 11 -10 1 -31 -18 -48 -41 -16 -24 -37 -51
-46 -60 -14 -14 -15 -20 -4 -33 11 -13 3 -24 -51 -74 -35 -33 -76 -71 -91 -86
-15 -14 -39 -30 -53 -35 -27 -10 -26 -30 2 -30 9 0 13 -3 10 -6 -4 -4 -21 -1
-38 6 -28 12 -33 11 -44 -3 -7 -9 -15 -14 -19 -10 -4 4 -10 2 -14 -4 -4 -6
-20 -15 -35 -18 -22 -6 -26 -4 -21 9 3 9 14 16 24 16 9 0 31 14 49 31 18 16
37 29 43 27 17 -6 108 92 108 117 0 11 5 26 12 33 15 15 8 15 -27 2 -20 -7
-32 -6 -49 5 -21 14 -24 14 -29 1 -10 -25 -44 -8 -45 22 0 63 0 62 -27 50 -22
-10 -29 -8 -50 12 -14 13 -24 28 -23 34 1 6 -6 23 -15 37 -17 26 -17 28 10 83
23 47 31 56 49 51 13 -3 27 2 34 10 7 8 21 15 31 15 24 0 31 14 20 43 -6 16
-6 28 2 36 8 8 7 11 -5 11 -8 0 -21 -6 -27 -14 -9 -11 -27 -13 -69 -9 -64 6
-72 11 -75 41 0 11 -12 26 -26 32 l-25 12 24 19 c75 60 120 75 120 39 0 -15 7
-20 28 -20 16 0 31 3 35 6 6 6 -16 36 -50 67 -13 11 -23 26 -23 33 0 7 -20 28
-43 46 -37 28 -42 37 -35 54 6 12 25 25 45 30 20 5 40 16 44 24 4 8 16 33 27
55 12 25 27 41 40 43 12 2 31 16 42 31 14 21 26 27 44 24 18 -4 29 2 47 27 13
17 25 26 27 21 2 -6 11 -11 19 -11z m-307 -870 c0 -24 -31 -27 -49 -6 -9 11
-9 15 1 19 29 12 48 7 48 -13z m423 -121 c-6 -6 -9 -17 -7 -23 5 -12 -31 -56
-45 -56 -5 0 -14 6 -20 14 -10 12 -5 22 26 54 23 25 42 37 48 31 5 -6 5 -13
-2 -20z m-425 -226 c-10 -2 -18 -11 -18 -18 0 -12 -19 -23 -45 -26 -5 0 -18
-8 -27 -16 -10 -9 -18 -12 -18 -7 0 14 22 34 37 34 7 0 22 9 33 20 11 11 28
19 38 19 16 -1 16 -2 0 -6z m9175 -45 c12 -6 29 -14 37 -18 8 -4 27 -42 41
-85 23 -70 30 -80 57 -90 38 -12 62 -35 66 -61 4 -25 39 -29 81 -10 18 9 36
16 39 16 9 0 7 -35 -2 -45 -5 -6 -17 -31 -26 -57 -15 -42 -21 -47 -41 -42 -29
7 -40 -10 -36 -57 2 -30 -3 -39 -33 -62 -19 -15 -39 -27 -45 -27 -6 0 -11 -5
-11 -11 0 -7 -10 -9 -25 -7 -14 3 -25 2 -25 -3 0 -11 -86 -69 -103 -69 -8 0
-26 -9 -40 -20 -14 -11 -27 -20 -30 -20 -8 0 4 43 16 58 8 10 7 16 -3 22 -9 6
-26 -3 -52 -28 -22 -20 -46 -37 -55 -37 -27 0 -26 -24 1 -35 14 -5 26 -16 26
-25 0 -18 11 -20 27 -4 13 13 85 1 80 -14 -2 -6 -12 -14 -23 -17 -26 -7 -74
-50 -74 -67 0 -8 7 -16 15 -19 8 -4 15 -12 15 -19 0 -7 11 -28 24 -48 26 -38
28 -63 5 -78 -11 -7 -10 -10 9 -15 12 -4 22 -8 22 -10 0 -13 -28 -63 -47 -83
-13 -13 -26 -35 -30 -49 -11 -45 -100 -116 -158 -126 -22 -5 -46 -13 -53 -19
-7 -6 -25 -12 -39 -13 -40 -4 -64 -38 -39 -56 14 -10 -21 -58 -43 -58 -10 0
-21 6 -24 13 -5 15 15 47 30 47 6 0 8 10 6 23 -3 17 -12 23 -34 25 -16 1 -29
-2 -29 -7 0 -5 -8 -12 -18 -15 -10 -3 -25 -19 -34 -34 l-17 -29 49 -55 c55
-62 70 -93 70 -143 0 -31 -30 -75 -51 -75 -3 0 -23 -13 -44 -30 -44 -35 -59
-38 -52 -9 4 14 -1 22 -16 28 l-22 8 21 7 c12 4 32 16 45 27 13 11 30 24 38
28 7 5 13 21 13 37 0 16 4 37 9 47 7 12 6 17 -2 17 -7 0 -9 3 -6 6 4 4 -9 24
-28 46 -19 21 -35 42 -35 47 0 5 -9 13 -21 16 -18 6 -19 8 -4 19 22 16 9 46
-21 46 -13 0 -24 5 -24 11 0 14 -26 39 -40 39 -7 0 -9 -8 -5 -19 5 -16 1 -19
-22 -17 -32 1 -68 29 -58 45 3 6 1 11 -4 11 -6 0 -11 7 -11 16 0 10 -5 14 -15
10 -27 -10 -30 25 -7 65 19 32 20 42 10 64 -8 18 -19 25 -40 25 -18 0 -28 5
-28 15 0 24 -49 18 -87 -11 -31 -23 -39 -25 -73 -16 -31 8 -41 6 -55 -7 -10
-10 -18 -12 -23 -6 -4 6 -24 11 -45 12 -24 1 -62 16 -100 39 -34 20 -69 37
-77 37 -8 0 -34 13 -56 28 -44 30 -62 66 -38 76 10 4 11 10 3 24 -5 11 -7 24
-4 29 3 6 2 10 -4 10 -5 0 -12 8 -16 19 -3 10 -19 21 -35 25 -18 3 -30 12 -30
21 0 9 -11 19 -23 24 -20 8 -23 15 -19 40 3 23 0 31 -11 31 -22 0 -29 15 -21
44 6 26 55 53 73 41 6 -3 14 1 17 9 3 9 15 16 26 16 11 0 31 9 45 20 14 11 31
20 38 20 18 0 27 42 19 90 -7 42 -2 46 47 42 10 -1 18 12 25 41 7 34 13 42 29
40 43 -5 65 6 65 35 0 19 10 34 32 49 l32 23 21 -24 c11 -13 30 -26 42 -30 29
-9 51 -55 46 -93 -5 -30 -3 -31 39 -38 53 -9 105 -39 113 -66 9 -26 44 -39
109 -39 30 0 71 -7 92 -16 49 -21 84 -25 108 -12 10 5 44 13 76 18 68 10 109
39 103 74 -6 31 19 51 47 36 17 -9 25 -8 39 4 10 9 25 16 33 16 9 0 22 9 29
21 9 12 35 26 63 33 l49 13 -22 22 c-15 15 -26 19 -34 13 -7 -5 -25 -8 -42 -7
-25 2 -30 6 -28 26 1 13 6 36 12 52 9 23 15 26 36 21 25 -6 77 18 73 34 -4 12
24 72 33 72 12 0 11 38 -1 42 -18 6 7 30 41 38 49 11 57 11 82 -2z m-6897
-238 c14 0 35 -5 47 -12 12 -7 32 -11 44 -9 11 1 24 -3 28 -8 3 -6 0 -11 -8
-11 -8 0 -22 -10 -33 -21 -19 -22 -19 -22 5 -14 16 5 21 4 17 -4 -11 -17 5
-13 42 9 35 22 46 25 38 11 -11 -17 24 -34 57 -28 35 5 74 -14 63 -32 -4 -5 0
-13 7 -18 21 -13 28 -42 15 -66 -10 -19 -9 -20 4 -10 8 7 18 10 21 6 11 -10 8
-61 -3 -68 -15 -9 -12 -32 4 -38 25 -10 116 42 116 65 0 18 4 19 35 14 29 -6
36 -4 42 11 12 35 46 53 101 53 60 0 89 20 107 73 8 24 17 33 38 35 25 3 27 0
27 -30 0 -19 7 -44 16 -56 19 -27 22 -23 -43 -56 -29 -14 -54 -30 -54 -34 -6
-34 -2 -57 9 -54 15 3 15 -6 -1 -22 -7 -7 -18 -11 -25 -8 -7 2 -21 -3 -30 -11
-9 -8 -26 -17 -37 -19 -12 -2 -21 -13 -23 -26 -2 -13 -12 -28 -21 -34 -10 -6
-16 -18 -14 -27 2 -9 -5 -25 -16 -35 -18 -16 -18 -20 -5 -52 8 -19 12 -35 9
-35 -3 -1 -11 -2 -17 -3 -7 -1 -12 -7 -11 -13 1 -6 -9 -14 -22 -17 -14 -4 -25
-11 -25 -16 0 -6 -6 -10 -12 -10 -22 -1 -98 -84 -100 -110 -1 -14 9 -50 21
-81 25 -59 23 -129 -2 -129 -17 0 -67 82 -67 110 0 13 -10 34 -21 46 -18 19
-24 21 -40 11 -16 -10 -21 -9 -29 3 -6 10 -26 15 -59 15 -27 0 -47 -3 -44 -7
2 -5 0 -8 -6 -8 -6 0 -8 -6 -5 -13 5 -14 -49 -18 -62 -4 -4 4 -27 7 -51 7 -73
0 -155 -67 -138 -113 4 -8 3 -17 -2 -20 -12 -8 -73 20 -73 33 0 21 -61 100
-77 100 -9 0 -21 -7 -28 -16 -11 -15 -14 -15 -38 1 -15 9 -27 23 -27 29 0 7
-10 22 -23 34 -21 20 -30 21 -102 16 -71 -6 -87 -4 -144 20 -36 14 -73 23 -86
20 -16 -4 -26 1 -39 21 -10 15 -20 24 -23 21 -3 -2 -14 4 -26 15 -11 10 -28
19 -36 19 -9 0 -21 10 -27 23 -31 62 -61 114 -76 131 -10 11 -18 29 -18 41 0
12 -3 25 -7 29 -4 4 -8 80 -8 169 0 89 -4 170 -9 179 -7 16 -4 17 22 12 25 -5
30 -3 29 12 -2 18 17 19 443 24 349 4 447 2 453 -7 4 -7 19 -13 33 -13z m3624
-132 c11 -12 20 -25 20 -30 0 -4 8 -8 19 -8 14 0 20 -10 24 -41 3 -23 3 -48 0
-55 -5 -15 -53 -20 -53 -6 0 4 -15 12 -32 17 -28 8 -33 15 -34 42 -1 18 -4 43
-8 57 -4 18 -1 28 11 35 25 15 30 14 53 -11z m454 -165 c4 -5 11 -8 14 -9 4 0
23 -8 42 -17 38 -16 116 -15 134 3 14 14 49 13 64 -2 7 -7 12 -22 12 -35 0
-14 6 -23 16 -23 10 0 12 -5 7 -12 -16 -27 11 -123 43 -156 11 -10 12 -18 5
-25 -17 -17 -13 -51 9 -75 12 -12 25 -22 30 -22 5 0 13 -15 18 -32 6 -18 13
-41 17 -50 5 -14 2 -18 -13 -18 -11 0 -22 -6 -24 -12 -9 -27 -71 -8 -137 42
-36 27 -75 50 -86 50 -23 0 -45 18 -45 35 0 6 18 21 40 34 31 17 41 29 46 59
4 20 14 45 23 56 15 18 14 18 -24 12 -47 -8 -89 -13 -127 -15 -16 0 -27 -6
-25 -12 1 -6 -4 -14 -12 -17 -9 -3 -12 0 -9 10 7 18 -28 18 -61 -1 -20 -11
-28 -10 -59 6 -26 13 -36 15 -39 6 -5 -15 -53 -18 -53 -3 0 6 -7 10 -15 10 -8
0 -15 -7 -15 -15 0 -8 -5 -15 -11 -15 -5 0 -7 5 -4 10 3 6 -1 13 -10 16 -9 4
-14 13 -11 20 3 7 1 16 -5 19 -5 4 -7 11 -4 16 4 5 -1 9 -9 9 -22 0 -20 20 2
21 15 1 15 2 1 6 -17 4 -33 53 -18 53 14 0 10 17 -5 23 -19 8 -57 -3 -50 -14
3 -5 -2 -12 -11 -16 -10 -3 -21 0 -26 8 -7 11 -9 11 -9 -3 0 -9 9 -23 20 -31
11 -8 17 -17 12 -22 -4 -4 1 -5 11 -2 11 4 16 3 12 -4 -4 -6 1 -20 11 -32 10
-12 12 -16 4 -9 -21 18 -34 15 -19 -5 13 -17 12 -17 -4 -4 -16 13 -20 13 -28
0 -5 -8 -9 -22 -9 -31 0 -15 -4 -16 -24 -7 -16 8 -27 23 -31 48 -6 29 -9 32
-14 17 -5 -12 -10 -16 -14 -9 -4 6 -4 19 -1 28 4 9 -1 21 -11 29 -17 12 -16
16 17 48 37 38 89 54 139 43 18 -4 29 -3 29 4 0 16 53 13 86 -4 39 -20 67 -19
111 5 38 20 84 26 97 13z m-299 -203 c3 -6 -1 -7 -9 -4 -18 7 -21 14 -7 14 6
0 13 -4 16 -10z m-976 -54 c7 -8 24 -13 39 -11 40 4 59 -10 64 -47 3 -18 8
-41 13 -50 6 -14 2 -18 -16 -18 -27 -1 -59 -21 -59 -38 0 -6 -9 -14 -20 -17
-11 -3 -20 -10 -20 -15 0 -5 -17 -14 -37 -20 -55 -18 -83 -38 -83 -60 0 -18
-7 -20 -71 -20 -44 0 -68 4 -64 10 3 6 14 10 24 10 9 0 32 14 49 31 24 23 32
40 32 66 0 45 26 89 62 104 17 7 34 26 45 50 18 43 25 46 42 25z m986 -17 c11
-11 -9 -12 -54 -3 -17 4 -31 11 -31 16 0 11 71 0 85 -13z m-4608 -45 c-3 -3
-12 -4 -19 -1 -8 3 -5 6 6 6 11 1 17 -2 13 -5z m4656 -99 c43 -13 52 -13 77 0
22 11 36 12 55 5 15 -6 37 -10 51 -10 18 0 27 -8 35 -27 13 -35 3 -91 -17 -95
-12 -2 -9 -16 20 -73 20 -38 36 -76 36 -83 0 -8 10 -22 23 -33 22 -18 19 -18
-170 -19 l-192 0 -3 148 c-2 81 -2 159 0 175 4 31 16 33 85 12z m915 -217 c-2
-5 -8 -9 -13 -9 -6 0 -15 -17 -21 -37 -9 -34 -13 -37 -47 -36 -33 1 -77 26
-77 44 0 3 16 6 36 5 28 -2 45 5 68 25 28 26 61 30 54 8z m-6828 -108 c0 -5
-8 -10 -17 -10 -15 0 -16 2 -3 10 19 12 20 12 20 0z m45 -20 c3 -5 1 -10 -4
-10 -6 0 -11 5 -11 10 0 6 2 10 4 10 3 0 8 -4 11 -10z m50 -20 c3 -5 -1 -10
-9 -10 -8 0 -18 5 -21 10 -3 6 1 10 9 10 8 0 18 -4 21 -10z m8125 -36 c0 -8 5
-14 11 -14 8 0 10 -12 6 -36 -5 -27 -3 -33 6 -26 7 5 27 12 46 16 37 7 61 -6
61 -34 0 -10 7 -23 15 -30 9 -7 15 -22 13 -33 -2 -16 -11 -20 -41 -22 -42 -1
-59 -18 -54 -53 5 -26 -8 -39 -17 -16 -3 8 -10 13 -15 9 -6 -3 -14 3 -20 12
-12 22 -12 21 -34 -42 -21 -62 -22 -79 -1 -71 8 3 13 2 10 -3 -8 -13 18 -60
43 -77 12 -9 21 -22 21 -30 0 -19 -36 -18 -44 1 -3 8 -12 15 -19 15 -7 0 -20
11 -27 25 -7 13 -17 22 -22 19 -13 -8 -9 46 7 90 15 42 10 93 -12 114 -9 9
-11 26 -7 51 4 27 2 40 -10 50 -32 27 -16 76 31 96 32 14 53 9 53 -11z m-8089
0 c10 -13 10 -17 -1 -24 -18 -11 -30 -3 -30 21 0 23 13 25 31 3z"/>
<path d="M1588 5083 c7 -3 16 -2 19 1 4 3 -2 6 -13 5 -11 0 -14 -3 -6 -6z"/>
<path d="M2431 4447 c-13 -21 -12 -21 5 -5 10 10 16 20 13 22 -3 3 -11 -5 -18
-17z"/>
<path d="M3940 3867 c-16 -13 -18 -17 -33 -90 -11 -56 -1 -92 23 -77 10 6 15
27 15 64 1 43 6 61 23 79 12 13 22 26 22 30 0 11 -34 7 -50 -6z"/>
<path d="M7545 3650 c-3 -6 5 -10 19 -10 14 0 28 5 31 10 3 6 -5 10 -19 10
-14 0 -28 -4 -31 -10z"/>
</g>
</svg>
